<svg width="21" height="24" viewBox="0 0 21 24" fill="none" xmlns="http://www.w3.org/2000/svg">
<path d="M8.08686 10.2857C8.77257 10.2857 9.328 10.8 9.31543 11.4286C9.31543 12.0571 8.77371 12.5714 8.08686 12.5714C7.41257 12.5714 6.85714 12.0571 6.85714 11.4286C6.85714 10.8 7.4 10.2857 8.08686 10.2857ZM12.4846 10.2857C13.1714 10.2857 13.7143 10.8 13.7143 11.4286C13.7143 12.0571 13.1714 12.5714 12.4846 12.5714C11.8103 12.5714 11.256 12.0571 11.256 11.4286C11.256 10.8 11.7977 10.2857 12.4846 10.2857ZM18.1611 0C19.4903 0 20.5714 1.104 20.5714 2.472V24L18.0446 21.72L16.6217 20.376L15.1166 18.9474L15.7406 21.168H2.41029C1.08114 21.168 0 20.064 0 18.696V2.472C0 1.104 1.08114 0 2.41029 0H18.16H18.1611ZM13.624 15.672C16.2217 15.5886 17.2217 13.848 17.2217 13.848C17.2217 9.984 15.528 6.85143 15.528 6.85143C13.8366 5.55657 12.2251 5.592 12.2251 5.592L12.0606 5.784C14.0594 6.408 14.9874 7.30857 14.9874 7.30857C13.8961 6.6937 12.6933 6.3021 11.4491 6.15657C10.6599 6.06743 9.86278 6.07511 9.07543 6.17943C9.00457 6.17943 8.94514 6.192 8.87543 6.20343C8.464 6.24 7.464 6.39543 6.20686 6.96C5.77257 7.16343 5.51314 7.30857 5.51314 7.30857C5.51314 7.30857 6.48914 6.36 8.60457 5.736L8.48686 5.592C8.48686 5.592 6.87657 5.55657 5.184 6.85257C5.184 6.85257 3.49143 9.984 3.49143 13.848C3.49143 13.848 4.47886 15.5874 7.07657 15.672C7.07657 15.672 7.51086 15.1326 7.86514 14.6766C6.37143 14.2194 5.808 13.2594 5.808 13.2594C5.808 13.2594 5.92457 13.344 6.136 13.464C6.14743 13.4754 6.15886 13.488 6.18286 13.4994C6.21829 13.5246 6.25371 13.536 6.28914 13.56C6.58286 13.728 6.87657 13.8594 7.14629 13.968C7.62857 14.16 8.20457 14.352 8.87543 14.4846C9.88036 14.6816 10.9136 14.6854 11.92 14.496C12.5062 14.3914 13.0781 14.2184 13.624 13.9806C14.0354 13.824 14.4937 13.5954 14.976 13.272C14.976 13.272 14.3886 14.256 12.848 14.7006C13.2011 15.1566 13.6251 15.672 13.6251 15.672H13.624Z" fill="#485DFF"/>
</svg>
