<svg width="24" height="24" viewBox="0 0 24 24" fill="none" xmlns="http://www.w3.org/2000/svg">
<path d="M5.01812 15.2062C5.01577 15.8708 4.75063 16.5075 4.28056 16.9773C3.81049 17.4471 3.17367 17.7119 2.50906 17.7139C1.84424 17.7119 1.20722 17.4469 0.737117 16.9768C0.267014 16.5067 0.00201871 15.8697 0 15.2049C0 13.8234 1.12761 12.6946 2.50906 12.6946H5.0194V15.2049L5.01812 15.2062ZM6.2835 15.2062C6.2835 13.8247 7.41111 12.6958 8.79256 12.6958C10.174 12.6958 11.3029 13.8247 11.3029 15.2062V21.4909C11.3009 22.156 11.0357 22.7932 10.5653 23.2633C10.0949 23.7335 9.4576 23.9983 8.79256 24C8.12774 23.998 7.49072 23.733 7.02061 23.2629C6.55051 22.7928 6.28552 22.1558 6.2835 21.4909V15.2062ZM8.79256 5.01812C8.12796 5.01577 7.49126 4.75063 7.02144 4.28056C6.55161 3.81049 6.28679 3.17367 6.28477 2.50906C6.28477 1.12761 7.41238 0 8.79383 0C10.1753 0 11.3042 1.12761 11.3042 2.50906V5.0194H8.79256V5.01812ZM8.79256 6.2835C10.174 6.2835 11.3029 7.41111 11.3029 8.79256C11.3012 9.45782 11.0362 10.0954 10.5658 10.5658C10.0954 11.0362 9.45782 11.3012 8.79256 11.3029H2.50906C1.84402 11.3009 1.20681 11.0357 0.736669 10.5653C0.266529 10.0949 0.0016823 9.4576 0 8.79256C0 7.41111 1.12761 6.2835 2.50906 6.2835H8.79383H8.79256ZM18.9806 8.79256C18.9806 7.41111 20.1095 6.2835 21.4909 6.2835C22.8724 6.2835 24 7.41111 24 8.79256C23.9983 9.4576 23.7335 10.0949 23.2633 10.5653C22.7932 11.0357 22.156 11.3009 21.4909 11.3029H18.9806V8.79256ZM17.7152 8.79256C17.7135 9.4576 17.4487 10.0949 16.9786 10.5653C16.5084 11.0357 15.8712 11.3009 15.2062 11.3029C14.5409 11.3012 13.9034 11.0362 13.4329 10.5658C12.9625 10.0954 12.6975 9.45782 12.6958 8.79256V2.50906C12.6958 1.12761 13.8247 0 15.2062 0C16.5876 0 17.7152 1.12761 17.7152 2.50906V8.79383V8.79256ZM15.2062 18.9806C16.5876 18.9806 17.7152 20.1095 17.7152 21.4909C17.7132 22.1558 17.4482 22.7928 16.9781 23.2629C16.508 23.733 15.871 23.998 15.2062 24C14.5411 23.9983 13.9038 23.7335 13.4334 23.2633C12.963 22.7932 12.6978 22.156 12.6958 21.4909V18.9806H15.2062ZM15.2062 17.7152C14.5411 17.7135 13.9038 17.4487 13.4334 16.9786C12.963 16.5084 12.6978 15.8712 12.6958 15.2062C12.6958 13.8247 13.8247 12.6958 15.2062 12.6958H21.4909C22.8724 12.6958 24 13.8247 24 15.2062C23.998 15.871 23.733 16.508 23.2629 16.9781C22.7928 17.4482 22.1558 17.7132 21.4909 17.7152H15.2062Z" fill="#485DFF"/>
</svg>
