<svg width="40" height="40" viewBox="0 0 40 40" fill="none" xmlns="http://www.w3.org/2000/svg">
<path fill-rule="evenodd" clip-rule="evenodd" d="M19.943 2C15.083 2 11.0504 6.15569 11.0504 11.2944V19.3306C11.0504 24.4693 15.083 28.625 19.943 28.625C24.803 28.625 28.8356 24.4693 28.8356 19.3306V11.2944C28.8356 6.15569 24.803 2 19.943 2ZM9.55045 11.2944C9.55045 5.38556 14.1975 0.5 19.943 0.5C25.6886 0.5 30.3356 5.38556 30.3356 11.2944V19.3306C30.3356 25.2394 25.6886 30.125 19.943 30.125C14.1975 30.125 9.55045 25.2394 9.55045 19.3306V11.2944ZM13.9277 34.5722C14.164 34.232 14.6313 34.1477 14.9716 34.384L19.9439 37.8369L24.9161 34.384C25.2563 34.1477 25.7236 34.232 25.9599 34.5722C26.1962 34.9124 26.1119 35.3798 25.7717 35.616L20.3717 39.366C20.1144 39.5447 19.7733 39.5447 19.5161 39.366L14.116 35.616C13.7758 35.3798 13.6915 34.9124 13.9277 34.5722ZM20.6938 9.29199C20.6938 8.87778 20.3581 8.54199 19.9438 8.54199C19.5296 8.54199 19.1938 8.87778 19.1938 9.29199V13.3101C19.1938 13.7243 19.5296 14.0601 19.9438 14.0601C20.3581 14.0601 20.6938 13.7243 20.6938 13.3101V9.29199Z" fill="url(#paint0_linear_133_1587)"/>
<defs>
<linearGradient id="paint0_linear_133_1587" x1="9.55045" y1="0.5" x2="28" y2="28.5" gradientUnits="userSpaceOnUse">
<stop stop-color="#7589FF"/>
<stop offset="1" stop-color="#10E0DA"/>
</linearGradient>
</defs>
</svg>
