<svg width="200" height="56" viewBox="0 0 200 56" fill="none" xmlns="http://www.w3.org/2000/svg">
<path fill-rule="evenodd" clip-rule="evenodd" d="M11.1305 54H54V11.1305L44.8695 2H2V44.8695L11.1305 54ZM49.1511 49.1511H13.138L6.84894 42.862V6.84894H42.862L49.1511 13.138V49.1511ZM18.4622 15.6401H26.8266V19.2526H22.6419V36.7427H26.8266V40.3551H18.4622V15.6401ZM29.0474 40.36V36.7475H31.4573L33.3581 34.8468V21.1582L31.4573 19.2574H29.0474V15.645H33.4842L37.5427 19.7035V36.3063L33.4842 40.3649H29.0474V40.36Z" fill="url(#paint0_linear_133_1574)"/>
<path d="M78 18.6H92.336L96.176 22.44V37.16L92.336 41H78V18.6ZM90.192 37.288L91.824 35.656V23.944L90.192 22.312H82.352V37.288H90.192Z" fill="white"/>
<path d="M102.591 18.6H118.783V22.28H106.943V27.944H117.855V31.56H106.943V37.32H118.783V41H102.591V18.6Z" fill="white"/>
<path d="M122.797 18.6H127.277L132.845 35.816H132.909L138.477 18.6H142.957L134.989 41H130.765L122.797 18.6Z" fill="white"/>
<path d="M158.209 18.6H172.257L175.681 22.056V29.896L172.225 33.384H162.561V41H158.209V18.6ZM170.273 29.736L171.393 28.616V23.368L170.273 22.248H162.561V29.736H170.273Z" fill="white"/>
<path d="M181.456 18.6H195.504L198.928 22.056V29.896L195.472 33.384H185.808V41H181.456V18.6ZM193.52 29.736L194.64 28.616V23.368L193.52 22.248H185.808V29.736H193.52Z" fill="white"/>
<defs>
<linearGradient id="paint0_linear_133_1574" x1="3.04933" y1="9.95919" x2="54.7991" y2="10.9191" gradientUnits="userSpaceOnUse">
<stop stop-color="#10E0DA"/>
<stop offset="1" stop-color="#899AFF"/>
</linearGradient>
</defs>
</svg>
