<svg width="20" height="26" viewBox="0 0 20 26" fill="none" xmlns="http://www.w3.org/2000/svg">
<path d="M9.99998 2.99999C9.11593 2.99999 8.26808 3.35118 7.64296 3.9763C7.01784 4.60143 6.66665 5.44927 6.66665 6.33333V10.7778C6.66665 11.6618 7.01784 12.5097 7.64296 13.1348C8.26808 13.7599 9.11593 14.1111 9.99998 14.1111C10.884 14.1111 11.7319 13.7599 12.357 13.1348C12.9821 12.5097 13.3333 11.6618 13.3333 10.7778V6.33333C13.3333 5.44927 12.9821 4.60143 12.357 3.9763C11.7319 3.35118 10.884 2.99999 9.99998 2.99999ZM9.99998 0.777771C10.7296 0.777771 11.452 0.92147 12.126 1.20066C12.8 1.47986 13.4125 1.88907 13.9284 2.40496C14.4442 2.92084 14.8535 3.53328 15.1327 4.20731C15.4118 4.88134 15.5555 5.60376 15.5555 6.33333V10.7778C15.5555 12.2512 14.9702 13.6643 13.9284 14.7061C12.8865 15.748 11.4734 16.3333 9.99998 16.3333C8.52656 16.3333 7.11348 15.748 6.07161 14.7061C5.02975 13.6643 4.44443 12.2512 4.44443 10.7778V6.33333C4.44443 4.8599 5.02975 3.44682 6.07161 2.40496C7.11348 1.36309 8.52656 0.777771 9.99998 0.777771ZM0.0610962 11.8889H2.29999C2.5692 13.7386 3.4954 15.4296 4.90913 16.6525C6.32287 17.8754 8.12963 18.5484 9.99887 18.5484C11.8681 18.5484 13.6749 17.8754 15.0886 16.6525C16.5024 15.4296 17.4285 13.7386 17.6978 11.8889H19.9378C19.6851 14.143 18.674 16.2444 17.0702 17.8484C15.4664 19.4524 13.3652 20.4637 11.1111 20.7167V25.2222H8.88887V20.7167C6.63458 20.464 4.53308 19.4527 2.92907 17.8487C1.32506 16.2447 0.313777 14.1432 0.0610962 11.8889Z" fill="#485DFF"/>
</svg>
