<svg width="136" height="18" viewBox="0 0 136 18" fill="none" xmlns="http://www.w3.org/2000/svg">
<path fill-rule="evenodd" clip-rule="evenodd" d="M123.312 4.797V18H119.53V0H124.609L132.018 13.413V0H135.801V18H130.918L123.311 4.797H123.312ZM106.342 2.992C104.518 2.992 103.226 3.561 102.434 4.702C101.806 5.594 101.501 7.006 101.501 8.966C101.501 11.059 101.897 12.584 102.674 13.576C103.45 14.568 104.672 15.023 106.355 15.023C107.98 15.023 109.183 14.535 109.963 13.56C110.732 12.58 111.119 11.073 111.119 9.027C111.119 7.154 110.807 5.743 110.18 4.745C109.441 3.591 108.169 2.997 106.343 2.992H106.342ZM106.317 0C108.164 0 109.803 0.3 111.203 0.906C112.859 1.636 114.017 2.847 114.678 4.542C115.199 5.88 115.463 7.444 115.463 9.266C115.463 11.087 115.146 12.634 114.504 13.963C113.773 15.498 112.464 16.6934 110.854 17.297C109.493 17.7851 108.053 18.0228 106.605 17.998C104.523 17.998 102.71 17.625 101.157 16.88C99.8632 16.2546 98.817 15.2248 98.1824 13.952C97.498 12.613 97.1573 10.993 97.1583 9.092C97.1583 5.699 98.0339 3.283 99.7861 1.846C101.264 0.632 103.462 0.016 106.317 0.004V0ZM85.8061 7.306H95.1234V18H86.6573C85.1807 18 84.0112 17.895 83.16 17.688C82.3131 17.4859 81.5164 17.1175 80.818 16.605C78.8339 15.145 77.8383 12.64 77.8353 9.085C77.8353 6.739 78.3122 4.8 79.2569 3.26C79.9227 2.15542 80.9264 1.28602 82.1247 0.776C83.3349 0.267 84.8969 0 86.8495 0H95.1234V3.206H87.3091C85.6271 3.206 84.3925 3.553 83.6278 4.255C82.7308 5.085 82.2824 6.567 82.2793 8.705C82.2658 9.70851 82.3865 10.7094 82.6383 11.682C82.8712 12.561 83.1946 13.22 83.5973 13.648C84.0051 14.068 84.5298 14.371 85.1095 14.521C85.8757 14.7196 86.6664 14.8122 87.4586 14.796H91.1064V10.516H85.8142V7.306H85.8061ZM74.7793 0.005V3.21H69.8736C68.5861 3.21 67.6464 3.299 67.0647 3.483C66.4759 3.66482 65.9637 4.03112 65.6064 4.526C65.3627 4.84459 65.1832 5.20609 65.0776 5.591C64.9456 6.19769 64.8616 6.81354 64.8264 7.433H74.7844V10.645H64.8214C64.9444 12.205 65.398 13.28 66.1556 13.894C66.9132 14.507 68.2088 14.796 70.0403 14.796H74.7844V18H69.8725C68.6957 18.0094 67.52 17.9252 66.3569 17.748C64.7685 17.49 63.5044 16.78 62.5566 15.633C61.2173 13.976 60.5471 11.734 60.5471 8.907C60.5471 5.761 61.4929 3.329 63.3875 1.589C63.9789 1.0353 64.6867 0.61609 65.461 0.361C66.1942 0.125 67.1746 0 68.4132 0L74.7793 0.005ZM44.2271 7.95H49.8651C50.8068 7.95 51.479 7.822 51.8786 7.557C52.4725 7.149 52.7776 6.461 52.7776 5.468C52.7776 4.374 52.32 3.663 51.421 3.36C50.9126 3.23535 50.3886 3.18349 49.8651 3.206H44.2271V7.95ZM44.2271 11.16V18H40.2081V0H49.4339C52.0698 0 53.9319 0.318 54.9732 0.962C55.6693 1.37629 56.2402 1.96596 56.6268 2.67C57.0234 3.393 57.2268 4.2 57.2166 5.017C57.2166 6.725 56.76 8.045 55.8488 8.977C55.2186 9.58135 54.4483 10.0258 53.6044 10.272C54.2044 10.44 54.7708 10.702 55.2803 11.048C55.7075 11.388 56.0573 11.81 56.3064 12.286C56.52 12.678 56.6847 13.093 56.7976 13.521C56.9186 14.105 56.999 14.696 57.0386 15.291C57.1485 16.587 57.3041 17.487 57.4963 17.998H52.983C52.8366 17.576 52.7024 16.735 52.5661 15.446C52.4542 14.393 52.2549 13.581 51.9569 13.025C51.6695 12.4626 51.208 12.0043 50.639 11.716C49.9068 11.336 48.8522 11.155 47.461 11.158L44.2271 11.16ZM27.9966 0C29.8444 0 31.4725 0.302 32.881 0.906C33.6827 1.24676 34.4052 1.74507 35.004 2.37033C35.6028 2.99559 36.0652 3.73461 36.363 4.542C36.8898 5.88 37.1573 7.444 37.1573 9.266C37.1573 11.087 36.8359 12.634 36.1892 13.963C35.4587 15.5013 34.1456 16.6979 32.5302 17.297C31.1725 17.787 29.7315 18.025 28.2824 17.998C26.1925 17.998 24.3875 17.625 22.8407 16.879C21.549 16.254 20.5054 15.2243 19.8742 13.952C19.1969 12.612 18.8563 10.993 18.8522 9.092C18.8522 5.698 19.7288 3.283 21.481 1.846C22.9688 0.632 25.141 0.018 27.9966 0.004V0ZM28.0322 2.992C26.2119 2.992 24.9081 3.562 24.1241 4.702C23.5068 5.594 23.2007 7.005 23.2007 8.966C23.2007 11.059 23.5902 12.584 24.3681 13.576C25.1451 14.567 26.3593 15.022 28.0434 15.022C29.6675 15.022 30.8695 14.535 31.6475 13.56C32.4163 12.58 32.7986 11.073 32.7986 9.027C32.7986 7.154 32.4936 5.742 31.8742 4.745C31.1359 3.591 29.8576 2.997 28.0342 2.992H28.0322ZM14.7844 7.352V10.572H4.28441V18H0.547119V8.588C0.569492 5.898 0.822712 4.125 1.3078 3.27C1.83701 2.15275 2.75702 1.2598 3.9 0.754C5.0461 0.253 6.63864 0 8.6939 0H14.7854V3.203H9.16678C7.42169 3.23 6.29898 3.371 5.80068 3.64C4.81424 4.046 4.3078 4.97 4.27932 6.392V7.352H14.7844Z" fill="white"/>
</svg>
