<svg width="360" height="651" viewBox="0 0 360 651" fill="none" xmlns="http://www.w3.org/2000/svg">
<path opacity="0.0144928" d="M372.268 537.824C382.065 542.645 393.87 540.402 401.215 532.322L461.917 465.549C466.261 460.771 468.542 454.472 468.266 448.02L462.074 303.445C461.857 298.371 460.068 293.491 456.956 289.478L382.248 193.154C376.605 185.879 367.359 182.381 358.313 184.101L284.42 198.146C275.374 199.865 268.056 206.511 265.476 215.349L231.318 332.365C229.895 337.24 230.022 342.436 231.681 347.236L278.964 484.001C281.073 490.104 285.507 495.127 291.301 497.979L372.268 537.824Z" stroke="url(#paint0_linear_113_1218)"/>
<path opacity="0.0289855" d="M355.373 537.307C364.887 542.605 376.757 540.987 384.506 533.336L448.184 470.464C452.786 465.921 455.404 459.742 455.469 453.276L456.906 310.044C456.958 304.95 455.42 299.968 452.508 295.789L383.485 196.753C378.227 189.209 369.187 185.244 360.076 186.486L286.081 196.572C276.97 197.814 269.321 204.053 266.274 212.73L226.275 326.626C224.588 331.432 224.44 336.644 225.852 341.538L265.571 479.16C267.364 485.373 271.541 490.626 277.191 493.772L355.373 537.307Z" stroke="url(#paint1_linear_113_1218)"/>
<path opacity="0.0434783" d="M338.622 536.284C347.83 542.042 359.73 541.05 367.859 533.848L434.272 475.004C439.119 470.709 442.069 464.67 442.476 458.206L451.384 316.716C451.705 311.617 450.424 306.545 447.721 302.21L384.461 200.79C379.601 192.997 370.791 188.578 361.64 189.34L287.754 195.495C278.602 196.257 270.645 202.074 267.141 210.563L221.534 321.052C219.585 325.775 219.161 330.989 220.321 335.964L252.517 474.03C253.988 480.337 257.896 485.806 263.387 489.239L338.622 536.284Z" stroke="url(#paint2_linear_113_1218)"/>
<path opacity="0.057971" d="M322.039 534.767C330.92 540.967 342.817 540.601 351.299 533.867L420.202 479.162C425.282 475.129 428.555 469.246 429.304 462.803L445.505 323.441C446.097 318.351 445.078 313.203 442.591 308.722L385.154 205.245C380.703 197.226 372.147 192.365 362.98 192.647L289.409 194.91C280.242 195.192 272 200.57 268.05 208.847L217.083 315.659C214.876 320.284 214.175 325.485 215.078 330.529L239.814 468.632C240.958 475.017 244.587 480.687 249.905 484.401L322.039 534.767Z" stroke="url(#paint3_linear_113_1218)"/>
<path opacity="0.0724638" d="M305.653 532.771C314.184 539.395 326.046 539.652 334.855 533.403L405.997 482.934C411.295 479.175 414.884 473.466 415.974 467.062L439.27 330.201C440.132 325.133 439.379 319.922 437.116 315.305L385.544 210.101C381.513 201.877 373.231 196.589 364.074 196.391L291.021 194.812C281.864 194.614 273.362 199.54 268.979 207.582L212.91 310.46C210.45 314.974 209.472 320.147 210.115 325.248L227.475 462.988C228.288 469.433 231.626 475.292 236.757 479.276L305.653 532.771Z" stroke="url(#paint4_linear_113_1218)"/>
<path opacity="0.0869565" d="M281.416 530.56C289.577 537.587 301.37 538.461 310.478 532.714L383.608 486.563C389.11 483.091 393.005 477.573 394.434 471.226L424.606 337.221C425.739 332.19 425.256 326.93 423.224 322.189L377.539 215.584C373.937 207.177 365.952 201.477 356.831 200.801L284.493 195.441C275.372 194.765 266.634 199.226 261.831 207.009L200.932 305.717C198.224 310.106 196.97 315.237 197.349 320.381L207.44 457.369C207.918 463.857 210.957 469.889 215.887 474.134L281.416 530.56Z" stroke="url(#paint5_linear_113_1218)"/>
<path opacity="0.101449" d="M265.493 527.653C273.265 535.063 284.957 536.548 294.335 531.317L369.197 489.551C374.887 486.377 379.079 481.066 380.844 474.793L417.659 343.988C419.061 339.008 418.85 333.712 417.056 328.858L377.264 221.176C374.098 212.61 366.43 206.515 357.37 205.364L285.941 196.292C276.881 195.142 267.932 199.126 262.725 206.63L197.278 300.945C194.328 305.196 192.8 310.272 192.912 315.444L195.86 451.3C196.002 457.814 198.732 464.004 203.448 468.501L265.493 527.653Z" stroke="url(#paint6_linear_113_1218)"/>
<path opacity="0.115942" d="M249.836 524.317C257.202 532.088 268.761 534.176 278.38 529.473L354.717 492.146C360.58 489.279 365.056 484.191 367.154 478.011L410.36 350.73C412.028 345.814 412.092 340.496 410.543 335.542L376.63 227.105C373.908 218.4 366.576 211.929 357.601 210.308L287.27 197.605C278.295 195.984 269.163 199.482 263.568 206.684L193.864 296.406C190.679 300.506 188.879 305.51 188.723 310.699L184.673 445.053C184.476 451.576 186.89 457.908 191.38 462.645L249.836 524.317Z" stroke="url(#paint7_linear_113_1218)"/>
<path opacity="0.130435" d="M234.466 520.571C241.409 528.68 252.803 531.361 262.633 527.197L340.188 494.346C346.207 491.797 350.957 486.948 353.383 480.878L402.712 357.427C404.644 352.59 404.985 347.264 403.685 342.221L375.622 233.345C373.349 224.527 366.372 217.697 357.507 215.612L288.455 199.367C279.59 197.282 270.301 200.285 264.334 207.165L190.675 292.11C187.263 296.045 185.193 300.965 184.767 306.155L173.884 438.651C173.349 445.166 175.44 451.624 179.691 456.59L234.466 520.571Z" stroke="url(#paint8_linear_113_1218)"/>
<path opacity="0.144928" d="M211.332 516.682C217.836 525.106 229.036 528.368 239.046 524.753L317.561 496.402C323.719 494.179 328.731 489.583 331.479 483.64L386.649 364.309C388.842 359.565 389.461 354.245 388.415 349.125L366.154 240.123C364.335 231.214 357.731 224.045 349.001 221.503L281.403 201.815C272.673 199.272 263.252 201.774 256.934 208.313L179.626 288.315C175.995 292.073 173.66 296.894 172.963 302.073L155.43 432.366C154.557 438.855 156.318 445.423 160.319 450.606L211.332 516.682Z" stroke="url(#paint9_linear_113_1218)"/>
<path opacity="0.15942" d="M196.595 512.175C202.647 520.89 213.621 524.72 223.781 521.662L303 497.82C309.28 495.93 314.54 491.601 317.603 485.802L378.32 370.86C380.769 366.224 381.666 360.924 380.879 355.74L364.357 246.917C362.995 237.941 356.78 230.454 348.208 227.462L282.233 204.439C273.661 201.447 264.138 203.441 257.486 209.621L176.844 284.535C173.002 288.104 170.407 292.811 169.439 297.965L145.456 425.726C144.247 432.172 145.671 438.833 149.411 444.22L196.595 512.175Z" stroke="url(#paint10_linear_113_1218)"/>
<path opacity="0.173913" d="M208.785 518.19L288.455 498.849C294.838 497.3 300.332 493.252 303.703 487.614L369.659 377.312C372.359 372.796 373.534 367.53 373.009 362.295L362.148 253.95C361.244 244.93 355.433 237.147 347.043 233.716L282.854 207.471C274.463 204.041 264.864 205.523 257.899 211.326L174.242 281.025C170.199 284.393 167.348 288.973 166.111 294.088L135.894 419.003C134.35 425.387 135.434 432.125 138.903 437.702L182.201 507.32C187.787 516.302 198.506 520.685 208.785 518.19Z" stroke="url(#paint11_linear_113_1218)"/>
<path opacity="0.188406" d="M168.165 502.14C173.274 511.363 183.711 516.282 194.077 514.354L273.945 499.497C280.414 498.294 286.127 494.539 289.797 489.079L360.674 383.646C363.62 379.264 365.072 374.047 364.812 368.773L359.517 261.197C359.072 252.158 353.68 244.099 345.493 240.24L283.244 210.898C275.057 207.039 265.41 208.007 258.154 213.417L171.805 277.794C167.571 280.95 164.471 285.39 162.965 290.451L126.745 412.22C124.869 418.526 125.609 425.322 128.797 431.077L168.165 502.14Z" stroke="url(#paint12_linear_113_1218)"/>
<path opacity="0.202899" d="M154.503 496.658C159.125 506.096 169.252 511.534 179.673 510.176L259.492 499.767C266.027 498.915 271.943 495.466 275.905 490.199L351.376 389.846C354.561 385.611 356.287 380.457 356.295 375.158L356.457 268.633C356.471 259.597 351.509 251.287 343.549 247.011L283.385 214.701C275.425 210.425 265.757 210.879 258.231 215.881L169.516 274.848C165.103 277.781 161.759 282.066 159.988 287.061L118.009 405.401C115.806 411.612 116.198 418.449 119.097 424.368L154.503 496.658Z" stroke="url(#paint13_linear_113_1218)"/>
<path opacity="0.217391" d="M133.155 491.145C137.283 500.773 147.074 506.711 157.519 505.922L237.043 499.916C243.626 499.419 249.73 496.286 253.972 491.227L333.7 396.143C337.118 392.068 339.116 386.991 339.393 381.68L344.889 276.479C345.359 267.47 340.841 258.932 333.128 254.253L275.188 219.111C267.475 214.433 257.814 214.372 250.042 218.952L159.289 272.44C154.707 275.141 151.128 279.259 149.093 284.173L101.614 398.818C99.0885 404.917 99.1309 411.778 101.732 417.845L133.155 491.145Z" stroke="url(#paint14_linear_113_1218)"/>
<path opacity="0.231884" d="M120.277 485.13C123.902 494.921 133.332 501.338 143.769 501.118L222.761 499.453C229.372 499.314 235.647 496.508 240.158 491.673L323.801 402.025C327.443 398.122 329.71 393.136 330.258 387.826L340.95 284.214C341.875 275.255 337.81 266.512 330.364 261.445L274.778 223.614C267.332 218.547 257.707 217.973 249.712 222.12L157.248 270.08C152.509 272.538 148.703 276.477 146.408 281.297L93.7 391.998C90.8572 397.968 90.5487 404.835 92.8448 411.036L120.277 485.13Z" stroke="url(#paint15_linear_113_1218)"/>
<path opacity="0.246377" d="M107.807 478.886C110.923 488.813 119.969 495.688 130.367 496.034L208.592 498.637C215.213 498.858 221.64 496.387 226.41 491.79L313.619 407.726C317.477 404.007 320.009 399.126 320.828 393.831L336.567 292.059C337.941 283.173 334.338 274.25 327.181 268.809L274.068 228.438C266.91 222.998 257.347 221.915 249.154 225.617L155.307 268.02C150.424 270.226 146.399 273.972 143.848 278.685L86.1912 385.211C83.038 391.037 82.3783 397.892 84.3625 404.212L107.807 478.886Z" stroke="url(#paint16_linear_113_1218)"/>
<path opacity="0.26087" d="M95.753 472.438C98.3567 482.474 106.995 489.784 117.324 490.692L194.554 497.477C201.165 498.058 207.728 495.932 212.743 491.586L303.165 413.23C307.23 409.707 310.023 404.945 311.112 399.678L331.737 299.987C333.555 291.198 330.422 282.119 323.571 276.321L273.043 233.564C266.192 227.767 256.719 226.179 248.352 229.427L153.448 266.262C148.434 268.208 144.2 271.75 141.398 276.342L79.0828 378.482C75.6266 384.147 74.6163 390.972 76.2828 397.395L95.753 472.438Z" stroke="url(#paint17_linear_113_1218)"/>
<path opacity="0.275362" d="M84.1223 465.811C86.2105 475.929 94.4213 483.65 104.648 485.113L180.664 495.982C187.245 496.923 193.926 495.15 199.173 491.069L292.452 418.524C296.714 415.209 299.762 410.579 301.121 405.353L326.459 307.974C328.714 299.304 326.058 290.093 319.531 283.956L271.691 238.971C265.164 232.834 255.808 230.749 247.293 233.533L151.655 264.808C146.523 266.486 142.089 269.813 139.042 274.27L72.3675 371.831C68.6166 377.32 67.257 384.097 68.6007 390.607L84.1223 465.811Z" stroke="url(#paint18_linear_113_1218)"/>
<path opacity="0.289855" d="M72.921 459.032C74.4923 469.205 82.2555 477.311 92.3514 479.32L166.94 494.166C173.471 495.466 180.251 494.051 185.717 490.247L281.493 423.595C285.942 420.498 289.239 416.014 290.867 410.843L320.734 315.993C323.42 307.463 321.245 298.147 315.059 291.689L270 244.638C263.814 238.179 254.601 235.604 245.963 237.919L149.911 263.66C144.675 265.063 140.052 268.163 136.766 272.474L66.0386 365.281C62.002 370.578 60.2955 377.29 61.3121 383.871L72.921 459.032Z" stroke="url(#paint19_linear_113_1218)"/>
<path opacity="0.304348" d="M62.153 452.124C63.2074 462.326 70.5047 470.792 80.4398 473.338L153.396 492.039C159.859 493.695 166.718 492.645 172.388 489.13L270.303 428.431C274.929 425.563 278.468 421.237 280.362 416.135L314.565 324.018C317.672 315.65 315.982 306.255 310.154 299.494L267.958 250.543C262.13 243.782 253.086 240.726 244.352 242.566L148.199 262.817C142.874 263.939 138.073 266.802 134.555 270.954L60.0871 358.853C55.7745 363.943 53.7244 370.572 54.4102 377.208L62.153 452.124Z" stroke="url(#paint20_linear_113_1218)"/>
<path opacity="0.318841" d="M43.7497 445.363C44.2886 455.567 51.1036 464.365 60.8487 467.437L131.977 489.863C138.351 491.873 145.27 491.191 151.13 487.975L250.825 433.269C255.616 430.641 259.39 426.486 261.548 421.465L299.885 332.273C303.403 324.088 302.201 314.638 296.745 307.595L257.487 256.913C252.031 249.87 243.182 246.343 234.377 247.704L138.432 262.528C133.032 263.362 128.066 265.978 124.323 269.959L46.4319 352.815C41.8538 357.684 39.4641 364.213 39.8166 370.888L43.7497 445.363Z" stroke="url(#paint21_linear_113_1218)"/>
<path opacity="0.333333" d="M33.8543 438.278C33.8805 448.457 40.1979 457.559 49.7247 461.145L118.837 487.155C125.105 489.513 132.064 489.204 138.097 486.298L239.217 437.603C244.16 435.222 248.162 431.251 250.58 426.325L292.841 340.236C296.76 332.254 296.046 322.775 290.976 315.47L254.719 263.229C249.649 255.924 241.019 251.939 232.171 252.818L136.736 262.294C131.276 262.836 126.156 265.195 122.196 268.994L41.2039 346.69C36.3716 351.325 33.6473 357.737 33.6646 364.433L33.8543 438.278Z" stroke="url(#paint22_linear_113_1218)"/>
<path opacity="0.347826" d="M24.3952 431.141C23.9128 441.269 29.7193 450.648 39.0003 454.732L105.921 484.177C112.061 486.879 119.041 486.944 125.231 484.359L227.422 441.671C232.506 439.547 236.726 435.771 239.4 430.954L285.369 348.131C289.676 340.371 289.45 330.89 284.779 323.344L251.577 269.716C246.906 262.171 238.519 257.741 229.654 258.137L135.023 262.361C129.518 262.606 124.257 264.7 120.09 268.305L36.3197 340.746C31.2453 345.134 28.1922 351.411 27.8731 358.112L24.3952 431.141Z" stroke="url(#paint23_linear_113_1218)"/>
<path opacity="0.362319" d="M15.3708 423.979C14.3855 434.03 19.6691 443.657 28.6777 448.222L93.2388 480.945C99.2341 483.983 106.214 484.425 112.545 482.168L215.457 445.464C220.669 443.605 225.098 440.037 228.023 435.34L277.477 355.934C282.159 348.416 282.419 338.957 278.158 331.193L248.056 276.353C243.795 268.589 235.675 263.729 226.819 263.642L133.277 262.725C127.744 262.671 122.355 264.492 117.989 267.89L31.7667 335C26.4626 339.129 23.0876 345.255 22.4318 351.944L15.3708 423.979Z" stroke="url(#paint24_linear_113_1218)"/>
<path opacity="0.376812" d="M6.77748 416.816C5.29619 426.765 10.0468 436.609 18.7574 441.639L80.8028 477.473C86.6342 480.841 93.5949 481.66 100.049 479.738L203.338 448.976C208.664 447.389 213.293 444.039 216.464 439.476L269.174 363.623C274.217 356.365 274.961 346.953 271.119 338.993L244.153 283.115C240.311 275.156 232.481 269.882 223.661 269.314L131.483 263.384C125.937 263.027 120.434 264.566 115.878 267.749L27.5303 329.471C22.0099 333.328 18.3204 339.287 17.3287 345.947L6.77748 416.816Z" stroke="url(#paint25_linear_113_1218)"/>
<path opacity="0.391304" d="M-1.38907 409.676C-3.35816 419.498 0.850888 429.53 9.23907 435.006L68.6231 473.778C74.2727 477.466 81.1934 478.662 87.753 477.082L191.083 452.198C196.51 450.892 201.327 447.771 204.739 443.353L260.47 371.174C265.86 364.193 267.082 354.854 263.67 346.722L239.863 289.982C236.451 281.849 228.931 276.178 220.174 275.133L129.625 264.331C124.082 263.67 118.48 264.921 113.745 267.877L23.596 324.174C17.8731 327.748 13.8773 333.523 12.5511 340.139L-1.38907 409.676Z" stroke="url(#paint26_linear_113_1218)"/>
<path opacity="0.405797" d="M-9.13492 402.583C-11.5823 412.254 -7.92166 422.443 0.120729 428.345L56.709 469.875C62.1591 473.875 69.0196 475.445 75.6669 474.214L178.707 455.127C184.221 454.106 189.217 451.225 192.862 446.964L251.378 378.567C257.099 371.88 258.794 362.638 255.819 354.356L235.187 296.929C232.211 288.647 225.022 282.597 216.354 281.08L127.689 265.561C122.166 264.594 116.478 265.551 111.576 268.272L19.9478 319.124C14.0368 322.405 9.74406 327.982 8.08554 334.536L-9.13492 402.583Z" stroke="url(#paint27_linear_113_1218)"/>
<path opacity="0.42029" d="M-16.4677 395.561C-19.3827 405.056 -16.2755 415.373 -8.601 421.679L45.0688 465.782C50.3021 470.082 57.0823 472.024 63.7988 471.146L166.229 457.757C171.814 457.027 176.977 454.395 180.849 450.304L241.911 385.781C247.946 379.403 250.107 370.283 247.575 361.875L230.124 303.935C227.591 295.527 220.753 289.117 212.199 287.134L125.659 267.067C120.172 265.795 114.414 266.452 109.355 268.928L16.569 314.337C10.4849 317.314 5.90506 322.678 3.91731 329.153L-16.4677 395.561Z" stroke="url(#paint28_linear_113_1218)"/>
<path opacity="0.434783" d="M-23.3956 388.631C-26.7662 397.929 -24.216 408.342 -16.9301 415.03L33.71 461.515C38.7099 466.104 45.3898 468.414 52.1568 467.894L153.666 460.085C159.308 459.651 164.626 457.277 168.716 453.367L232.082 392.796C238.415 386.742 241.033 377.767 238.949 369.257L224.675 310.977C222.591 302.467 216.121 295.718 207.708 293.276L123.523 268.842C118.088 267.265 112.276 267.618 107.072 269.84L13.4427 309.824C7.20098 312.49 2.34465 317.625 0.0315665 324.006L-23.3956 388.631Z" stroke="url(#paint29_linear_113_1218)"/>
<path opacity="0.449275" d="M-29.9291 381.817C-33.7422 390.895 -31.7505 401.373 -24.8728 408.419L22.6385 457.091C27.3889 461.957 33.9485 464.63 40.7473 464.47L141.035 462.108C146.719 461.974 152.179 459.867 156.48 456.149L221.906 399.593C228.519 393.877 231.585 385.07 229.953 376.483L218.843 318.033C217.211 309.446 211.128 302.379 202.879 299.488L121.265 270.879C115.9 268.998 110.048 269.042 104.711 271.003L10.5506 305.599C4.16705 307.945 -0.954377 312.838 -3.58812 319.108L-29.9291 381.817Z" stroke="url(#paint30_linear_113_1218)"/>
<path opacity="0.463768" d="M-36.0784 375.139C-40.3199 383.975 -38.8868 394.489 -32.4351 401.868L11.8602 452.528C16.3458 457.658 22.7653 460.688 29.5769 460.89L128.353 463.824C134.064 463.993 139.653 462.162 144.157 458.647L211.4 406.154C218.274 400.789 221.777 392.173 220.6 383.533L212.633 325.083C211.455 316.442 205.773 309.079 197.714 305.749L118.875 273.168C113.595 270.987 107.719 270.718 102.263 272.41L7.87461 301.673C1.36566 303.691 -4.00874 308.328 -6.95766 314.472L-36.0784 375.139Z" stroke="url(#paint31_linear_113_1218)"/>
<path opacity="0.478261" d="M-41.8562 368.617C-46.5107 377.192 -45.6345 387.71 -39.6254 395.396L1.37899 447.843C5.58491 453.223 11.8451 456.603 18.6503 457.169L115.639 465.232C121.36 465.708 127.066 464.159 131.762 460.857L200.58 412.464C207.696 407.46 211.625 399.058 210.903 390.389L206.048 332.104C205.325 323.435 200.061 315.799 192.215 312.041L116.338 275.701C111.161 273.221 105.277 272.639 99.7135 274.054L5.39557 298.054C-1.22215 299.738 -6.83682 304.108 -10.0947 310.109L-41.8562 368.617Z" stroke="url(#paint32_linear_113_1218)"/>
<path opacity="0.492754" d="M-47.2753 362.272C-52.3267 370.564 -52.0039 381.058 -46.4524 389.024L-8.80166 443.054C-4.88942 448.668 1.19239 452.39 7.9718 453.32L102.91 466.334C108.625 467.117 114.434 465.859 119.313 462.78L189.465 418.506C196.803 413.874 201.144 405.707 200.877 397.034L199.095 339.076C198.828 330.402 193.993 322.517 186.384 318.346L113.643 278.467C108.585 275.694 102.709 274.795 97.0526 275.928L3.09416 294.753C-3.6153 296.097 -9.45685 300.186 -13.0166 306.03L-47.2753 362.272Z" stroke="url(#paint33_linear_113_1218)"/>
<path opacity="0.507246" d="M-52.3504 356.12C-57.7814 364.113 -58.007 374.551 -52.9264 382.771L-18.6797 438.178C-15.0744 444.011 -9.18968 448.066 -2.4553 449.358L90.1818 467.129C95.8763 468.222 101.774 467.259 106.825 464.413L178.072 424.265C185.613 420.016 190.352 412.104 190.539 403.45L191.781 345.979C191.968 337.325 187.575 329.215 180.225 324.644L110.779 281.456C105.856 278.394 100.005 277.178 94.2688 278.023L0.95036 291.776C-5.83355 292.776 -11.888 296.573 -15.7419 302.245L-52.3504 356.12Z" stroke="url(#paint34_linear_113_1218)"/>
<path opacity="0.521739" d="M-65.1671 350.428C-70.9597 358.104 -71.727 368.458 -67.129 376.903L-36.3246 433.481C-33.0387 439.516 -27.3693 443.894 -20.6992 445.546L69.4022 467.87C75.0595 469.272 81.0311 468.611 86.2448 466.006L158.35 429.978C166.072 426.12 171.194 418.482 171.832 409.872L176.044 353.042C176.682 344.432 172.742 336.123 165.672 331.168L99.665 284.906C94.8922 281.561 89.0832 280.027 83.2811 280.579L-9.12658 289.378C-15.9674 290.03 -22.2202 293.524 -26.3598 299.009L-65.1671 350.428Z" stroke="url(#paint35_linear_113_1218)"/>
<path opacity="0.536232" d="M-69.5996 344.717C-75.7349 352.058 -77.0356 362.299 -72.9302 370.941L-45.5943 428.483C-42.6393 434.704 -37.2029 439.393 -30.6163 441.403L56.7296 468.062C62.3333 469.772 68.3645 469.418 73.7293 467.063L146.46 435.136C154.344 431.675 159.833 424.33 160.917 415.789L168.035 359.749C169.119 351.208 165.641 342.724 158.873 337.403L96.432 288.308C91.8262 284.687 86.0751 282.836 80.2218 283.091L-11.0151 287.069C-17.895 287.369 -24.3311 290.55 -28.7472 295.834L-69.5996 344.717Z" stroke="url(#paint36_linear_113_1218)"/>
<path opacity="0.550725" d="M-73.7359 339.249C-80.1942 346.241 -82.0183 356.34 -78.414 365.15L-54.5604 423.451C-51.9471 429.839 -46.7609 434.828 -40.2769 437.192L44.1094 467.958C49.6434 469.975 55.719 469.932 61.2234 467.835L134.352 439.975C142.376 436.919 148.214 429.885 149.74 421.435L159.693 366.332C161.219 357.882 158.21 349.25 151.763 343.58L93 291.899C88.5769 288.009 82.9004 285.843 77.0103 285.797L-12.8067 285.099C-19.708 285.046 -26.3117 287.905 -30.9945 292.975L-73.7359 339.249Z" stroke="url(#paint37_linear_113_1218)"/>
<path opacity="0.565217" d="M-77.5933 334.038C-84.3542 340.666 -86.6904 350.597 -83.5938 359.545L-63.2247 418.401C-60.9626 424.938 -56.0432 430.213 -49.6808 432.926L31.5582 467.562C37.0061 469.885 43.111 470.156 48.7432 468.324L122.047 444.488C130.19 441.84 136.359 435.134 138.32 426.799L151.03 372.772C152.991 364.437 150.458 355.684 144.35 349.684L89.3608 295.666C85.1359 291.516 79.5506 289.037 73.6385 288.687L-14.5219 283.472C-21.4264 283.064 -28.1819 285.593 -33.1207 290.435L-77.5933 334.038Z" stroke="url(#paint38_linear_113_1218)"/>
<path opacity="0.57971" d="M-81.19 329.098C-88.2325 335.35 -91.0679 345.085 -88.484 354.141L-71.5896 413.351C-69.6876 420.016 -65.0509 425.565 -58.8287 428.62L19.0917 466.882C24.4373 469.507 30.5561 470.095 36.3038 468.536L109.566 448.665C117.805 446.43 124.288 440.067 126.675 431.87L142.058 379.054C144.445 370.857 142.393 362.008 136.642 355.699L85.5066 299.598C81.4949 295.196 76.0173 292.407 70.0982 291.751L-16.1813 282.19C-23.071 281.426 -29.9617 283.617 -35.1454 288.219L-81.19 329.098Z" stroke="url(#paint39_linear_113_1218)"/>
<path opacity="0.594203" d="M-84.5448 324.44C-91.8474 330.304 -95.1677 339.818 -93.0995 348.953L-79.6588 408.315C-78.1246 415.091 -73.7858 420.897 -67.7222 424.288L6.72543 465.923C11.9526 468.846 18.0695 469.753 23.9203 468.473L96.9292 452.5C105.245 450.681 112.02 444.676 114.825 436.639L132.79 385.161C135.594 377.124 134.026 368.208 128.648 361.61L81.4304 303.68C77.6465 299.037 72.2932 295.942 66.3821 294.978L-17.8052 281.252C-24.6621 280.134 -31.6712 281.98 -37.0882 286.33L-84.5448 324.44Z" stroke="url(#paint40_linear_113_1218)"/>
<path opacity="0.608696" d="M-87.677 320.075C-95.2176 325.541 -99.0072 334.809 -97.456 343.992L-87.4366 403.311C-86.2769 410.177 -82.2505 416.225 -76.3636 419.943L-5.52555 464.693C-0.432891 467.91 5.66648 469.138 11.6074 468.143L84.1595 455.988C92.5292 454.586 99.5773 448.952 102.789 441.097L123.239 391.081C126.451 383.225 125.369 374.268 120.379 367.403L77.1259 307.899C73.5841 303.027 68.3714 299.63 62.4837 298.357L-19.4142 280.658C-26.2202 279.187 -33.3305 280.682 -38.9683 284.768L-87.677 320.075Z" stroke="url(#paint41_linear_113_1218)"/>
<path opacity="0.623188" d="M-90.6063 316.012C-98.3624 321.07 -102.604 330.069 -101.57 339.27L-94.9283 398.353C-94.1487 405.289 -90.4484 411.562 -84.7559 415.6L-17.6468 463.2C-12.7046 466.706 -6.63873 468.256 -0.620739 467.55L71.2782 459.124C79.6806 458.139 86.9805 452.889 90.5877 445.237L113.421 396.798C117.028 389.145 116.432 380.173 111.844 373.065L72.5876 312.243C69.3018 307.152 64.246 303.459 58.3968 301.878L-21.0283 280.405C-27.7654 278.584 -34.9596 279.722 -40.8054 283.535L-90.6063 316.012Z" stroke="url(#paint42_linear_113_1218)"/>
<path opacity="0.637681" d="M-93.3526 312.259C-101.301 316.902 -105.977 325.608 -105.457 334.799L-102.14 393.458C-101.745 400.442 -98.3836 406.924 -92.9028 411.271L-29.6244 461.455C-24.8484 465.242 -18.832 467.114 -12.7503 466.703L58.3072 461.905C66.7209 461.337 74.2511 456.482 78.241 449.053L103.35 402.3C107.34 394.871 107.228 385.912 103.055 378.584L67.8108 316.697C64.7943 311.4 59.9116 307.418 54.1163 305.528L-22.6674 280.491C-29.318 278.323 -36.5783 279.101 -42.6187 282.628L-93.3526 312.259Z" stroke="url(#paint43_linear_113_1218)"/>
<path opacity="0.652174" d="M-95.9365 308.824C-104.055 313.044 -109.145 321.437 -109.136 330.587L-109.079 388.64C-109.072 395.651 -106.061 402.324 -100.809 406.969L-41.445 459.466C-36.8508 463.529 -30.8999 465.721 -24.768 465.609L45.2681 464.331C53.6719 464.178 61.4104 459.727 65.7692 452.541L93.0415 407.576C97.4003 400.39 97.771 391.47 94.0235 383.947L62.7916 321.247C60.0572 315.758 55.3633 311.493 49.6372 309.297L-24.3513 280.912C-30.8976 278.4 -38.2061 278.814 -44.4272 282.048L-95.9365 308.824Z" stroke="url(#paint44_linear_113_1218)"/>
<path opacity="0.666667" d="M-98.3784 305.711C-106.643 309.504 -112.128 317.562 -112.624 326.642L-115.752 383.912C-116.135 390.93 -113.486 397.774 -108.479 402.705L-53.0959 457.244C-48.6988 461.574 -42.8294 464.085 -36.6611 464.276L32.1829 466.4C40.5556 466.659 48.48 462.622 53.193 455.697L82.5124 412.616C87.2254 405.691 88.0737 396.838 84.7615 389.144L57.5269 325.88C55.0868 320.212 50.5973 315.673 44.9558 313.171L-26.099 281.66C-32.5235 278.811 -39.8622 278.858 -46.2497 281.789L-98.3784 305.711Z" stroke="url(#paint45_linear_113_1218)"/>
<path opacity="0.681159" d="M-100.699 302.925C-109.087 306.286 -114.943 313.992 -115.937 322.973L-122.168 379.289C-122.942 386.291 -120.665 393.288 -115.918 398.493L-64.5649 454.801C-60.3798 459.39 -54.6081 462.218 -48.4172 462.713L19.0732 468.115C27.3941 468.781 35.4815 465.164 40.5328 458.518L71.7793 417.41C76.8306 410.764 78.1507 402.004 75.282 394.164L52.0146 330.582C49.8802 324.749 45.6105 319.945 40.0689 317.141L-27.9291 282.731C-34.2147 279.55 -41.5654 279.229 -48.1046 281.849L-100.699 302.925Z" stroke="url(#paint46_linear_113_1218)"/>
<path opacity="0.695652" d="M-102.919 300.469C-111.406 303.396 -117.613 310.731 -119.095 319.585L-128.336 374.783C-129.502 381.748 -127.606 388.877 -123.134 394.342L-75.8411 452.148C-71.8828 456.986 -66.2248 460.128 -60.0254 460.931L5.9596 469.476C14.2084 470.545 22.4357 467.355 27.8086 461.005L60.8585 421.949C66.2315 415.599 68.016 406.958 65.5976 398.999L46.2524 335.338C44.4349 329.357 40.3998 324.296 34.9734 321.193L-29.8602 284.116C-35.9902 280.611 -43.3346 279.921 -50.0103 282.223L-102.919 300.469Z" stroke="url(#paint47_linear_113_1218)"/>
<path opacity="0.710145" d="M-105.059 298.344C-113.622 300.836 -120.155 307.784 -122.115 316.484L-134.265 370.407C-135.821 377.313 -134.314 384.554 -130.133 390.265L-86.9135 449.298C-83.1963 454.375 -77.6678 457.827 -71.4741 458.939L-7.13631 470.489C1.02032 471.953 9.36432 469.195 15.0412 463.158L49.768 426.226C55.4449 420.189 57.6851 411.692 55.7223 403.64L40.2402 340.134C38.7497 334.02 34.964 328.715 29.6677 325.316L-31.9095 285.807C-37.8673 281.985 -45.1872 280.926 -51.9841 282.903L-105.059 298.344Z" stroke="url(#paint48_linear_113_1218)"/>
<path opacity="0.724638" d="M-107.139 296.552C-115.755 298.607 -122.59 305.154 -125.016 313.673L-139.966 366.172C-141.91 372.996 -140.799 380.328 -136.921 386.271L-97.7724 446.263C-94.3101 451.569 -88.9271 455.327 -82.7533 456.749L-20.1941 471.157C-12.1491 473.01 -3.71197 470.687 2.25038 464.977L38.5252 430.237C44.4875 424.526 47.1732 416.198 45.6697 408.08L33.9778 344.957C32.8239 338.727 29.3018 333.187 24.1506 329.499L-34.0942 287.795C-39.8637 283.664 -47.1408 282.237 -54.043 283.884L-107.139 296.552Z" stroke="url(#paint49_linear_113_1218)"/>
<path opacity="0.73913" d="M-109.18 295.09C-117.826 296.712 -124.939 302.843 -127.816 311.155L-145.451 362.088C-147.778 368.81 -147.069 376.212 -143.507 382.37L-108.409 443.058C-105.215 448.58 -99.9933 452.639 -93.8536 454.371L-33.194 471.487C-25.2797 473.72 -16.773 471.834 -10.5444 466.465L27.1473 433.974C33.3759 428.605 36.4954 420.469 35.4533 412.312L27.4656 349.792C26.6571 343.464 23.4123 337.701 18.421 333.728L-36.4308 290.068C-41.9964 285.638 -49.2126 283.845 -56.2042 285.156L-109.18 295.09Z" stroke="url(#paint50_linear_113_1218)"/>
<path opacity="0.753623" d="M-111.203 293.958C-119.855 295.147 -127.22 300.852 -130.534 308.932L-150.729 358.167C-153.435 364.765 -153.132 372.214 -149.9 378.57L-118.815 439.696C-115.902 445.422 -110.857 449.776 -104.766 451.818L-46.1162 471.486C-38.351 474.09 -29.7982 472.642 -23.3233 467.626L15.6526 437.435C22.1275 432.419 25.6679 424.5 25.0877 416.33L20.7055 354.626C20.2504 348.218 17.2962 342.245 12.4794 337.993L-38.9345 292.615C-44.2811 287.896 -51.4183 285.741 -58.483 286.712L-111.203 293.958Z" stroke="url(#paint51_linear_113_1218)"/>
<path opacity="0.768116" d="M-113.226 293.152C-121.862 293.913 -129.453 299.181 -133.187 307.005L-155.813 354.417C-158.892 360.869 -158.999 368.344 -156.107 374.882L-128.982 436.191C-126.364 442.108 -121.511 446.75 -115.482 449.102L-58.9418 471.162C-51.3435 474.127 -42.768 473.116 -36.0675 468.465L4.05881 440.616C10.7594 435.966 14.7064 428.286 14.5871 420.131L13.6997 359.446C13.6051 352.975 10.9544 346.805 6.32633 342.282L-41.6203 295.424C-46.7332 290.428 -53.7735 287.913 -60.8949 288.541L-113.226 293.152Z" stroke="url(#paint52_linear_113_1218)"/>
<path opacity="0.782609" d="M-115.27 292.667C-123.867 293.005 -131.657 297.828 -135.793 305.373L-160.715 350.847C-164.16 357.132 -164.679 364.61 -162.137 371.311L-138.905 432.557C-136.593 438.653 -131.947 443.575 -125.995 446.235L-71.6528 470.525C-64.2384 473.839 -55.6637 473.263 -48.7587 468.988L-7.61658 443.517C-0.711522 439.242 3.62641 431.823 3.96549 423.709L6.45074 364.237C6.72292 357.724 4.38802 351.37 -0.0372031 346.583L-44.5024 298.482C-49.3675 293.219 -56.2932 290.351 -63.4547 290.632L-115.27 292.667Z" stroke="url(#paint53_linear_113_1218)"/>
<path opacity="0.797101" d="M-117.352 292.499C-125.89 292.42 -133.853 296.79 -138.37 304.035L-165.448 347.464C-169.249 353.561 -170.183 361.02 -168.001 367.866L-148.577 428.811C-146.583 435.069 -142.159 440.265 -136.298 443.231L-84.2312 469.584C-77.0173 473.236 -68.4663 473.093 -61.3784 469.202L-19.3555 446.136C-12.2676 442.246 -7.55559 435.109 -6.76236 427.063L-1.03726 368.988C-0.392855 362.451 -2.40023 355.929 -6.60885 350.886L-47.5935 301.776C-52.1974 296.259 -58.9909 293.042 -66.176 292.975L-117.352 292.499Z" stroke="url(#paint54_linear_113_1218)"/>
<path opacity="0.811594" d="M-119.493 292.64C-127.949 292.151 -136.057 296.064 -140.936 302.989L-170.024 344.276C-174.173 350.165 -175.52 357.581 -173.707 364.553L-157.994 424.967C-156.328 431.373 -152.141 436.832 -146.386 440.102L-96.6605 468.352C-89.6626 472.328 -81.1582 472.613 -73.9097 469.115L-31.1406 448.475C-23.8921 444.977 -18.824 438.141 -17.5824 430.189L-8.76019 373.684C-7.73909 367.144 -9.40776 360.469 -13.3863 355.179L-50.906 305.29C-55.2359 299.532 -61.8801 295.972 -69.0719 295.556L-119.493 292.64Z" stroke="url(#paint55_linear_113_1218)"/>
<path opacity="0.826087" d="M-121.708 293.083C-130.062 292.193 -138.29 295.645 -143.507 302.23L-174.457 341.288C-178.942 346.949 -180.701 354.3 -179.264 361.378L-167.152 421.039C-165.825 427.578 -161.888 433.292 -156.252 436.862L-108.925 466.841C-102.158 471.127 -93.7222 471.835 -86.3355 468.735L-42.9547 450.534C-35.568 447.434 -30.163 440.92 -28.4804 433.088L-16.7131 378.314C-15.3117 371.791 -16.6311 364.979 -20.3666 359.451L-54.4511 309.009C-58.4948 303.025 -64.973 299.13 -72.1547 298.364L-121.708 293.083Z" stroke="url(#paint56_linear_113_1218)"/>
<rect x="-262.424" y="264.785" width="645.981" height="302.804" fill="url(#paint57_linear_113_1218)"/>
<defs>
<linearGradient id="paint0_linear_113_1218" x1="388.929" y1="546.58" x2="315.079" y2="158.045" gradientUnits="userSpaceOnUse">
<stop stop-color="#FF1CF7"/>
<stop offset="1" stop-color="#00F0FF"/>
</linearGradient>
<linearGradient id="paint1_linear_113_1218" x1="371.513" y1="546.867" x2="318.571" y2="158.458" gradientUnits="userSpaceOnUse">
<stop stop-color="#FF1CF7"/>
<stop offset="1" stop-color="#00F0FF"/>
</linearGradient>
<linearGradient id="paint2_linear_113_1218" x1="354.202" y1="546.616" x2="321.95" y2="159.447" gradientUnits="userSpaceOnUse">
<stop stop-color="#FF1CF7"/>
<stop offset="1" stop-color="#00F0FF"/>
</linearGradient>
<linearGradient id="paint3_linear_113_1218" x1="337.024" y1="545.839" x2="325.186" y2="161.002" gradientUnits="userSpaceOnUse">
<stop stop-color="#FF1CF7"/>
<stop offset="1" stop-color="#00F0FF"/>
</linearGradient>
<linearGradient id="paint4_linear_113_1218" x1="320.006" y1="544.549" x2="328.25" y2="163.11" gradientUnits="userSpaceOnUse">
<stop stop-color="#FF1CF7"/>
<stop offset="1" stop-color="#00F0FF"/>
</linearGradient>
<linearGradient id="paint5_linear_113_1218" x1="295.104" y1="543.007" x2="323.042" y2="166.003" gradientUnits="userSpaceOnUse">
<stop stop-color="#FF1CF7"/>
<stop offset="1" stop-color="#00F0FF"/>
</linearGradient>
<linearGradient id="paint6_linear_113_1218" x1="278.486" y1="540.731" x2="325.676" y2="169.169" gradientUnits="userSpaceOnUse">
<stop stop-color="#FF1CF7"/>
<stop offset="1" stop-color="#00F0FF"/>
</linearGradient>
<linearGradient id="paint7_linear_113_1218" x1="262.104" y1="537.987" x2="328.056" y2="172.839" gradientUnits="userSpaceOnUse">
<stop stop-color="#FF1CF7"/>
<stop offset="1" stop-color="#00F0FF"/>
</linearGradient>
<linearGradient id="paint8_linear_113_1218" x1="245.983" y1="534.792" x2="330.155" y2="176.994" gradientUnits="userSpaceOnUse">
<stop stop-color="#FF1CF7"/>
<stop offset="1" stop-color="#00F0FF"/>
</linearGradient>
<linearGradient id="paint9_linear_113_1218" x1="222.074" y1="531.413" x2="323.88" y2="181.862" gradientUnits="userSpaceOnUse">
<stop stop-color="#FF1CF7"/>
<stop offset="1" stop-color="#00F0FF"/>
</linearGradient>
<linearGradient id="paint10_linear_113_1218" x1="206.539" y1="527.373" x2="325.35" y2="186.925" gradientUnits="userSpaceOnUse">
<stop stop-color="#FF1CF7"/>
<stop offset="1" stop-color="#00F0FF"/>
</linearGradient>
<linearGradient id="paint11_linear_113_1218" x1="191.328" y1="522.942" x2="326.472" y2="192.409" gradientUnits="userSpaceOnUse">
<stop stop-color="#FF1CF7"/>
<stop offset="1" stop-color="#00F0FF"/>
</linearGradient>
<linearGradient id="paint12_linear_113_1218" x1="176.457" y1="518.14" x2="327.227" y2="198.291" gradientUnits="userSpaceOnUse">
<stop stop-color="#FF1CF7"/>
<stop offset="1" stop-color="#00F0FF"/>
</linearGradient>
<linearGradient id="paint13_linear_113_1218" x1="161.946" y1="512.991" x2="327.597" y2="204.546" gradientUnits="userSpaceOnUse">
<stop stop-color="#FF1CF7"/>
<stop offset="1" stop-color="#00F0FF"/>
</linearGradient>
<linearGradient id="paint14_linear_113_1218" x1="139.737" y1="507.767" x2="319.493" y2="211.398" gradientUnits="userSpaceOnUse">
<stop stop-color="#FF1CF7"/>
<stop offset="1" stop-color="#00F0FF"/>
</linearGradient>
<linearGradient id="paint15_linear_113_1218" x1="125.987" y1="501.993" x2="319.044" y2="218.325" gradientUnits="userSpaceOnUse">
<stop stop-color="#FF1CF7"/>
<stop offset="1" stop-color="#00F0FF"/>
</linearGradient>
<linearGradient id="paint16_linear_113_1218" x1="112.638" y1="495.945" x2="318.164" y2="225.547" gradientUnits="userSpaceOnUse">
<stop stop-color="#FF1CF7"/>
<stop offset="1" stop-color="#00F0FF"/>
</linearGradient>
<linearGradient id="paint17_linear_113_1218" x1="99.7008" y1="489.645" x2="316.842" y2="233.039" gradientUnits="userSpaceOnUse">
<stop stop-color="#FF1CF7"/>
<stop offset="1" stop-color="#00F0FF"/>
</linearGradient>
<linearGradient id="paint18_linear_113_1218" x1="87.1841" y1="483.12" x2="315.066" y2="240.774" gradientUnits="userSpaceOnUse">
<stop stop-color="#FF1CF7"/>
<stop offset="1" stop-color="#00F0FF"/>
</linearGradient>
<linearGradient id="paint19_linear_113_1218" x1="75.0971" y1="476.396" x2="312.829" y2="248.722" gradientUnits="userSpaceOnUse">
<stop stop-color="#FF1CF7"/>
<stop offset="1" stop-color="#00F0FF"/>
</linearGradient>
<linearGradient id="paint20_linear_113_1218" x1="63.446" y1="469.498" x2="310.124" y2="256.858" gradientUnits="userSpaceOnUse">
<stop stop-color="#FF1CF7"/>
<stop offset="1" stop-color="#00F0FF"/>
</linearGradient>
<linearGradient id="paint21_linear_113_1218" x1="44.1647" y1="462.701" x2="298.874" y2="265.4" gradientUnits="userSpaceOnUse">
<stop stop-color="#FF1CF7"/>
<stop offset="1" stop-color="#00F0FF"/>
</linearGradient>
<linearGradient id="paint22_linear_113_1218" x1="33.3987" y1="455.535" x2="295.217" y2="273.824" gradientUnits="userSpaceOnUse">
<stop stop-color="#FF1CF7"/>
<stop offset="1" stop-color="#00F0FF"/>
</linearGradient>
<linearGradient id="paint23_linear_113_1218" x1="23.0787" y1="448.273" x2="291.08" y2="282.351" gradientUnits="userSpaceOnUse">
<stop stop-color="#FF1CF7"/>
<stop offset="1" stop-color="#00F0FF"/>
</linearGradient>
<linearGradient id="paint24_linear_113_1218" x1="13.2057" y1="440.941" x2="286.464" y2="290.953" gradientUnits="userSpaceOnUse">
<stop stop-color="#FF1CF7"/>
<stop offset="1" stop-color="#00F0FF"/>
</linearGradient>
<linearGradient id="paint25_linear_113_1218" x1="3.77814" y1="433.566" x2="281.368" y2="299.601" gradientUnits="userSpaceOnUse">
<stop stop-color="#FF1CF7"/>
<stop offset="1" stop-color="#00F0FF"/>
</linearGradient>
<linearGradient id="paint26_linear_113_1218" x1="-5.20609" y1="426.172" x2="275.795" y2="308.27" gradientUnits="userSpaceOnUse">
<stop stop-color="#FF1CF7"/>
<stop offset="1" stop-color="#00F0FF"/>
</linearGradient>
<linearGradient id="paint27_linear_113_1218" x1="-13.7509" y1="418.785" x2="269.751" y2="316.931" gradientUnits="userSpaceOnUse">
<stop stop-color="#FF1CF7"/>
<stop offset="1" stop-color="#00F0FF"/>
</linearGradient>
<linearGradient id="paint28_linear_113_1218" x1="-21.8619" y1="411.429" x2="263.24" y2="325.559" gradientUnits="userSpaceOnUse">
<stop stop-color="#FF1CF7"/>
<stop offset="1" stop-color="#00F0FF"/>
</linearGradient>
<linearGradient id="paint29_linear_113_1218" x1="-29.5454" y1="404.129" x2="256.269" y2="334.127" gradientUnits="userSpaceOnUse">
<stop stop-color="#FF1CF7"/>
<stop offset="1" stop-color="#00F0FF"/>
</linearGradient>
<linearGradient id="paint30_linear_113_1218" x1="-36.8097" y1="396.906" x2="248.847" y2="342.611" gradientUnits="userSpaceOnUse">
<stop stop-color="#FF1CF7"/>
<stop offset="1" stop-color="#00F0FF"/>
</linearGradient>
<linearGradient id="paint31_linear_113_1218" x1="-43.6635" y1="389.786" x2="240.985" y2="350.986" gradientUnits="userSpaceOnUse">
<stop stop-color="#FF1CF7"/>
<stop offset="1" stop-color="#00F0FF"/>
</linearGradient>
<linearGradient id="paint32_linear_113_1218" x1="-50.1176" y1="382.788" x2="232.693" y2="359.229" gradientUnits="userSpaceOnUse">
<stop stop-color="#FF1CF7"/>
<stop offset="1" stop-color="#00F0FF"/>
</linearGradient>
<linearGradient id="paint33_linear_113_1218" x1="-56.1835" y1="375.935" x2="223.984" y2="367.316" gradientUnits="userSpaceOnUse">
<stop stop-color="#FF1CF7"/>
<stop offset="1" stop-color="#00F0FF"/>
</linearGradient>
<linearGradient id="paint34_linear_113_1218" x1="-61.8739" y1="369.246" x2="214.87" y2="375.227" gradientUnits="userSpaceOnUse">
<stop stop-color="#FF1CF7"/>
<stop offset="1" stop-color="#00F0FF"/>
</linearGradient>
<linearGradient id="paint35_linear_113_1218" x1="-75.2736" y1="362.989" x2="197.297" y2="383.188" gradientUnits="userSpaceOnUse">
<stop stop-color="#FF1CF7"/>
<stop offset="1" stop-color="#00F0FF"/>
</linearGradient>
<linearGradient id="paint36_linear_113_1218" x1="-80.2551" y1="356.687" x2="187.422" y2="390.683" gradientUnits="userSpaceOnUse">
<stop stop-color="#FF1CF7"/>
<stop offset="1" stop-color="#00F0FF"/>
</linearGradient>
<linearGradient id="paint37_linear_113_1218" x1="-84.9054" y1="350.604" x2="177.191" y2="397.943" gradientUnits="userSpaceOnUse">
<stop stop-color="#FF1CF7"/>
<stop offset="1" stop-color="#00F0FF"/>
</linearGradient>
<linearGradient id="paint38_linear_113_1218" x1="-89.2407" y1="344.757" x2="166.621" y2="404.948" gradientUnits="userSpaceOnUse">
<stop stop-color="#FF1CF7"/>
<stop offset="1" stop-color="#00F0FF"/>
</linearGradient>
<linearGradient id="paint39_linear_113_1218" x1="-93.2783" y1="339.161" x2="155.731" y2="411.684" gradientUnits="userSpaceOnUse">
<stop stop-color="#FF1CF7"/>
<stop offset="1" stop-color="#00F0FF"/>
</linearGradient>
<linearGradient id="paint40_linear_113_1218" x1="-97.0363" y1="333.83" x2="144.54" y2="418.136" gradientUnits="userSpaceOnUse">
<stop stop-color="#FF1CF7"/>
<stop offset="1" stop-color="#00F0FF"/>
</linearGradient>
<linearGradient id="paint41_linear_113_1218" x1="-100.533" y1="328.776" x2="133.069" y2="424.289" gradientUnits="userSpaceOnUse">
<stop stop-color="#FF1CF7"/>
<stop offset="1" stop-color="#00F0FF"/>
</linearGradient>
<linearGradient id="paint42_linear_113_1218" x1="-103.788" y1="324.012" x2="121.338" y2="430.131" gradientUnits="userSpaceOnUse">
<stop stop-color="#FF1CF7"/>
<stop offset="1" stop-color="#00F0FF"/>
</linearGradient>
<linearGradient id="paint43_linear_113_1218" x1="-106.821" y1="319.546" x2="109.368" y2="435.651" gradientUnits="userSpaceOnUse">
<stop stop-color="#FF1CF7"/>
<stop offset="1" stop-color="#00F0FF"/>
</linearGradient>
<linearGradient id="paint44_linear_113_1218" x1="-109.651" y1="315.39" x2="97.1799" y2="440.839" gradientUnits="userSpaceOnUse">
<stop stop-color="#FF1CF7"/>
<stop offset="1" stop-color="#00F0FF"/>
</linearGradient>
<linearGradient id="paint45_linear_113_1218" x1="-112.3" y1="311.55" x2="84.7966" y2="445.688" gradientUnits="userSpaceOnUse">
<stop stop-color="#FF1CF7"/>
<stop offset="1" stop-color="#00F0FF"/>
</linearGradient>
<linearGradient id="paint46_linear_113_1218" x1="-114.787" y1="308.032" x2="72.2402" y2="450.189" gradientUnits="userSpaceOnUse">
<stop stop-color="#FF1CF7"/>
<stop offset="1" stop-color="#00F0FF"/>
</linearGradient>
<linearGradient id="paint47_linear_113_1218" x1="-117.134" y1="304.842" x2="59.5323" y2="454.338" gradientUnits="userSpaceOnUse">
<stop stop-color="#FF1CF7"/>
<stop offset="1" stop-color="#00F0FF"/>
</linearGradient>
<linearGradient id="paint48_linear_113_1218" x1="-119.361" y1="301.985" x2="46.6961" y2="458.131" gradientUnits="userSpaceOnUse">
<stop stop-color="#FF1CF7"/>
<stop offset="1" stop-color="#00F0FF"/>
</linearGradient>
<linearGradient id="paint49_linear_113_1218" x1="-121.489" y1="299.462" x2="33.7539" y2="461.563" gradientUnits="userSpaceOnUse">
<stop stop-color="#FF1CF7"/>
<stop offset="1" stop-color="#00F0FF"/>
</linearGradient>
<linearGradient id="paint50_linear_113_1218" x1="-123.54" y1="297.274" x2="20.7277" y2="464.635" gradientUnits="userSpaceOnUse">
<stop stop-color="#FF1CF7"/>
<stop offset="1" stop-color="#00F0FF"/>
</linearGradient>
<linearGradient id="paint51_linear_113_1218" x1="-125.533" y1="295.423" x2="7.64013" y2="467.345" gradientUnits="userSpaceOnUse">
<stop stop-color="#FF1CF7"/>
<stop offset="1" stop-color="#00F0FF"/>
</linearGradient>
<linearGradient id="paint52_linear_113_1218" x1="-127.49" y1="293.907" x2="-5.48684" y2="469.695" gradientUnits="userSpaceOnUse">
<stop stop-color="#FF1CF7"/>
<stop offset="1" stop-color="#00F0FF"/>
</linearGradient>
<linearGradient id="paint53_linear_113_1218" x1="-129.43" y1="292.723" x2="-18.6317" y2="471.688" gradientUnits="userSpaceOnUse">
<stop stop-color="#FF1CF7"/>
<stop offset="1" stop-color="#00F0FF"/>
</linearGradient>
<linearGradient id="paint54_linear_113_1218" x1="-131.373" y1="291.869" x2="-31.7729" y2="473.327" gradientUnits="userSpaceOnUse">
<stop stop-color="#FF1CF7"/>
<stop offset="1" stop-color="#00F0FF"/>
</linearGradient>
<linearGradient id="paint55_linear_113_1218" x1="-133.339" y1="291.338" x2="-44.8895" y2="474.617" gradientUnits="userSpaceOnUse">
<stop stop-color="#FF1CF7"/>
<stop offset="1" stop-color="#00F0FF"/>
</linearGradient>
<linearGradient id="paint56_linear_113_1218" x1="-135.347" y1="291.127" x2="-57.9613" y2="475.564" gradientUnits="userSpaceOnUse">
<stop stop-color="#FF1CF7"/>
<stop offset="1" stop-color="#00F0FF"/>
</linearGradient>
<linearGradient id="paint57_linear_113_1218" x1="31.1116" y1="377.159" x2="64.068" y2="226.423" gradientUnits="userSpaceOnUse">
<stop/>
<stop offset="1" stop-opacity="0"/>
</linearGradient>
</defs>
</svg>
