<svg width="20" height="23" viewBox="0 0 20 23" fill="none" xmlns="http://www.w3.org/2000/svg">
<path d="M20 23L14.75 18L15.38 20H2.5C1.83696 20 1.20107 19.7366 0.732233 19.2678C0.263392 18.7989 0 18.163 0 17.5V2.5C0 1.83696 0.263392 1.20107 0.732233 0.732233C1.20107 0.263392 1.83696 0 2.5 0H17.5C18.163 0 18.7989 0.263392 19.2678 0.732233C19.7366 1.20107 20 1.83696 20 2.5V23ZM10 5.8C7.32 5.8 5.44 6.95 5.44 6.95C6.47 6.03 8.27 5.5 8.27 5.5L8.1 5.33C6.41 5.36 4.88 6.53 4.88 6.53C3.16 10.12 3.27 13.22 3.27 13.22C4.67 15.03 6.75 14.9 6.75 14.9L7.46 14C6.21 13.73 5.42 12.62 5.42 12.62C5.42 12.62 7.3 13.9 10 13.9C12.7 13.9 14.58 12.62 14.58 12.62C14.58 12.62 13.79 13.73 12.54 14L13.25 14.9C13.25 14.9 15.33 15.03 16.73 13.22C16.73 13.22 16.84 10.12 15.12 6.53C15.12 6.53 13.59 5.36 11.9 5.33L11.73 5.5C11.73 5.5 13.53 6.03 14.56 6.95C14.56 6.95 12.68 5.8 10 5.8ZM7.93 9.59C8.58 9.59 9.11 10.16 9.1 10.86C9.1 11.55 8.58 12.13 7.93 12.13C7.29 12.13 6.77 11.55 6.77 10.86C6.77 10.16 7.28 9.59 7.93 9.59ZM12.1 9.59C12.75 9.59 13.27 10.16 13.27 10.86C13.27 11.55 12.75 12.13 12.1 12.13C11.46 12.13 10.94 11.55 10.94 10.86C10.94 10.16 11.45 9.59 12.1 9.59Z" fill="#FAFAFA"/>
</svg>
